<mxfile host="app.diagrams.net" modified="2023-06-25T08:23:42.164Z" agent="Mozilla/5.0 (Windows NT 10.0; Win64; x64) AppleWebKit/537.36 (KHTML, like Gecko) Chrome/96.0.4664.93 Safari/537.36" version="21.1.7" etag="DWGbXk_LJo3Btc0nZb9P" type="github">
  <diagram name="第 1 页" id="bvCV-v3Us4rZkpgmmUGV">
    <mxGraphModel>
      <root>
        <mxCell id="0" />
        <mxCell id="1" parent="0" />
      </root>
    </mxGraphModel>
  </diagram>
</mxfile>
